<svg width="163" height="33" viewBox="0 0 163 33" fill="none" xmlns="http://www.w3.org/2000/svg">
<path d="M16.0166 2.14062V32H9.88477V2.14062H16.0166ZM25.2041 2.14062V6.95996H0.84082V2.14062H25.2041ZM23.8301 21.1309V20.7002C23.8301 19.0732 24.0625 17.5762 24.5273 16.209C24.9922 14.8281 25.6689 13.6318 26.5576 12.6201C27.4463 11.6084 28.54 10.8223 29.8389 10.2617C31.1377 9.6875 32.6279 9.40039 34.3096 9.40039C35.9912 9.40039 37.4883 9.6875 38.8008 10.2617C40.1133 10.8223 41.2139 11.6084 42.1025 12.6201C43.0049 13.6318 43.6885 14.8281 44.1533 16.209C44.6182 17.5762 44.8506 19.0732 44.8506 20.7002V21.1309C44.8506 22.7441 44.6182 24.2412 44.1533 25.6221C43.6885 26.9893 43.0049 28.1855 42.1025 29.2109C41.2139 30.2227 40.1201 31.0088 38.8213 31.5693C37.5225 32.1299 36.0322 32.4102 34.3506 32.4102C32.6689 32.4102 31.1719 32.1299 29.8594 31.5693C28.5605 31.0088 27.46 30.2227 26.5576 29.2109C25.6689 28.1855 24.9922 26.9893 24.5273 25.6221C24.0625 24.2412 23.8301 22.7441 23.8301 21.1309ZM29.7363 20.7002V21.1309C29.7363 22.0605 29.8184 22.9287 29.9824 23.7354C30.1465 24.542 30.4062 25.2529 30.7617 25.8682C31.1309 26.4697 31.6094 26.9414 32.1973 27.2832C32.7852 27.625 33.5029 27.7959 34.3506 27.7959C35.1709 27.7959 35.875 27.625 36.4629 27.2832C37.0508 26.9414 37.5225 26.4697 37.8779 25.8682C38.2334 25.2529 38.4932 24.542 38.6572 23.7354C38.835 22.9287 38.9238 22.0605 38.9238 21.1309V20.7002C38.9238 19.7979 38.835 18.9502 38.6572 18.1572C38.4932 17.3506 38.2266 16.6396 37.8574 16.0244C37.502 15.3955 37.0303 14.9033 36.4424 14.5479C35.8545 14.1924 35.1436 14.0146 34.3096 14.0146C33.4756 14.0146 32.7646 14.1924 32.1768 14.5479C31.6025 14.9033 31.1309 15.3955 30.7617 16.0244C30.4062 16.6396 30.1465 17.3506 29.9824 18.1572C29.8184 18.9502 29.7363 19.7979 29.7363 20.7002ZM61.585 27.1602V0.5H67.5322V32H62.1797L61.585 27.1602ZM47.5576 21.1719V20.7412C47.5576 19.0459 47.749 17.5078 48.1318 16.127C48.5146 14.7324 49.0752 13.5361 49.8135 12.5381C50.5518 11.54 51.4609 10.7676 52.541 10.2207C53.6211 9.67383 54.8516 9.40039 56.2324 9.40039C57.5312 9.40039 58.666 9.67383 59.6367 10.2207C60.6211 10.7676 61.4551 11.5469 62.1387 12.5586C62.8359 13.5566 63.3965 14.7393 63.8203 16.1064C64.2441 17.46 64.5518 18.9434 64.7432 20.5566V21.5C64.5518 23.0449 64.2441 24.4805 63.8203 25.8066C63.3965 27.1328 62.8359 28.2949 62.1387 29.293C61.4551 30.2773 60.6211 31.043 59.6367 31.5898C58.6523 32.1367 57.5039 32.4102 56.1914 32.4102C54.8105 32.4102 53.5801 32.1299 52.5 31.5693C51.4336 31.0088 50.5312 30.2227 49.793 29.2109C49.0684 28.1992 48.5146 27.0098 48.1318 25.6426C47.749 24.2754 47.5576 22.7852 47.5576 21.1719ZM53.4639 20.7412V21.1719C53.4639 22.0879 53.5322 22.9424 53.6689 23.7354C53.8193 24.5283 54.0586 25.2324 54.3867 25.8477C54.7285 26.4492 55.166 26.9209 55.6992 27.2627C56.2461 27.5908 56.9092 27.7549 57.6885 27.7549C58.7002 27.7549 59.5342 27.5293 60.1904 27.0781C60.8467 26.6133 61.3457 25.9775 61.6875 25.1709C62.043 24.3643 62.248 23.4346 62.3027 22.3818V19.6953C62.2617 18.834 62.1387 18.0615 61.9336 17.3779C61.7422 16.6807 61.4551 16.0859 61.0723 15.5938C60.7031 15.1016 60.2383 14.7188 59.6777 14.4453C59.1309 14.1719 58.4814 14.0352 57.7295 14.0352C56.9639 14.0352 56.3076 14.2129 55.7607 14.5684C55.2139 14.9102 54.7695 15.3818 54.4277 15.9834C54.0996 16.585 53.8535 17.2959 53.6895 18.1162C53.5391 18.9229 53.4639 19.7979 53.4639 20.7412ZM71.2031 21.1309V20.7002C71.2031 19.0732 71.4355 17.5762 71.9004 16.209C72.3652 14.8281 73.042 13.6318 73.9307 12.6201C74.8193 11.6084 75.9131 10.8223 77.2119 10.2617C78.5107 9.6875 80.001 9.40039 81.6826 9.40039C83.3643 9.40039 84.8613 9.6875 86.1738 10.2617C87.4863 10.8223 88.5869 11.6084 89.4756 12.6201C90.3779 13.6318 91.0615 14.8281 91.5264 16.209C91.9912 17.5762 92.2236 19.0732 92.2236 20.7002V21.1309C92.2236 22.7441 91.9912 24.2412 91.5264 25.6221C91.0615 26.9893 90.3779 28.1855 89.4756 29.2109C88.5869 30.2227 87.4932 31.0088 86.1943 31.5693C84.8955 32.1299 83.4053 32.4102 81.7236 32.4102C80.042 32.4102 78.5449 32.1299 77.2324 31.5693C75.9336 31.0088 74.833 30.2227 73.9307 29.2109C73.042 28.1855 72.3652 26.9893 71.9004 25.6221C71.4355 24.2412 71.2031 22.7441 71.2031 21.1309ZM77.1094 20.7002V21.1309C77.1094 22.0605 77.1914 22.9287 77.3555 23.7354C77.5195 24.542 77.7793 25.2529 78.1348 25.8682C78.5039 26.4697 78.9824 26.9414 79.5703 27.2832C80.1582 27.625 80.876 27.7959 81.7236 27.7959C82.5439 27.7959 83.248 27.625 83.8359 27.2832C84.4238 26.9414 84.8955 26.4697 85.251 25.8682C85.6064 25.2529 85.8662 24.542 86.0303 23.7354C86.208 22.9287 86.2969 22.0605 86.2969 21.1309V20.7002C86.2969 19.7979 86.208 18.9502 86.0303 18.1572C85.8662 17.3506 85.5996 16.6396 85.2305 16.0244C84.875 15.3955 84.4033 14.9033 83.8154 14.5479C83.2275 14.1924 82.5166 14.0146 81.6826 14.0146C80.8486 14.0146 80.1377 14.1924 79.5498 14.5479C78.9756 14.9033 78.5039 15.3955 78.1348 16.0244C77.7793 16.6396 77.5195 17.3506 77.3555 18.1572C77.1914 18.9502 77.1094 19.7979 77.1094 20.7002Z" fill="black"/>
<path d="M115.418 27.2012V32H100.386V27.2012H115.418ZM102.375 2.14062V32H96.2227V2.14062H102.375ZM124.811 9.81055V32H118.884V9.81055H124.811ZM118.515 4.02734C118.515 3.16602 118.815 2.45508 119.417 1.89453C120.019 1.33398 120.825 1.05371 121.837 1.05371C122.835 1.05371 123.635 1.33398 124.236 1.89453C124.852 2.45508 125.159 3.16602 125.159 4.02734C125.159 4.88867 124.852 5.59961 124.236 6.16016C123.635 6.7207 122.835 7.00098 121.837 7.00098C120.825 7.00098 120.019 6.7207 119.417 6.16016C118.815 5.59961 118.515 4.88867 118.515 4.02734ZM141.688 25.8682C141.688 25.4443 141.565 25.0615 141.319 24.7197C141.073 24.3779 140.615 24.0635 139.945 23.7764C139.289 23.4756 138.339 23.2021 137.095 22.9561C135.974 22.71 134.928 22.4023 133.957 22.0332C133 21.6504 132.166 21.1924 131.455 20.6592C130.758 20.126 130.211 19.4971 129.814 18.7725C129.418 18.0342 129.22 17.1934 129.22 16.25C129.22 15.3203 129.418 14.4453 129.814 13.625C130.225 12.8047 130.806 12.0801 131.558 11.4512C132.323 10.8086 133.253 10.3096 134.347 9.9541C135.454 9.58496 136.698 9.40039 138.079 9.40039C140.007 9.40039 141.661 9.70801 143.042 10.3232C144.437 10.9385 145.503 11.7861 146.241 12.8662C146.993 13.9326 147.369 15.1494 147.369 16.5166H141.463C141.463 15.9424 141.34 15.4297 141.094 14.9785C140.861 14.5137 140.492 14.1514 139.986 13.8916C139.494 13.6182 138.852 13.4814 138.059 13.4814C137.402 13.4814 136.835 13.5977 136.356 13.8301C135.878 14.0488 135.509 14.3496 135.249 14.7324C135.003 15.1016 134.88 15.5117 134.88 15.9629C134.88 16.3047 134.948 16.6123 135.085 16.8857C135.235 17.1455 135.475 17.3848 135.803 17.6035C136.131 17.8223 136.555 18.0273 137.074 18.2188C137.607 18.3965 138.264 18.5605 139.043 18.7109C140.643 19.0391 142.071 19.4697 143.329 20.0029C144.587 20.5225 145.585 21.2334 146.323 22.1357C147.062 23.0244 147.431 24.1934 147.431 25.6426C147.431 26.627 147.212 27.5293 146.774 28.3496C146.337 29.1699 145.708 29.8877 144.888 30.5029C144.067 31.1045 143.083 31.5762 141.935 31.918C140.8 32.2461 139.521 32.4102 138.1 32.4102C136.035 32.4102 134.285 32.041 132.85 31.3027C131.428 30.5645 130.348 29.6279 129.609 28.4932C128.885 27.3447 128.522 26.1689 128.522 24.9658H134.121C134.148 25.7725 134.354 26.4219 134.736 26.9141C135.133 27.4062 135.632 27.7617 136.233 27.9805C136.849 28.1992 137.512 28.3086 138.223 28.3086C138.988 28.3086 139.624 28.2061 140.13 28.001C140.636 27.7822 141.019 27.4951 141.278 27.1396C141.552 26.7705 141.688 26.3467 141.688 25.8682ZM162.135 9.81055V13.9941H149.215V9.81055H162.135ZM152.414 4.33496H158.32V25.3145C158.32 25.957 158.402 26.4492 158.566 26.791C158.744 27.1328 159.004 27.3721 159.346 27.5088C159.688 27.6318 160.118 27.6934 160.638 27.6934C161.007 27.6934 161.335 27.6797 161.622 27.6523C161.923 27.6113 162.176 27.5703 162.381 27.5293L162.401 31.877C161.896 32.041 161.349 32.1709 160.761 32.2666C160.173 32.3623 159.523 32.4102 158.812 32.4102C157.514 32.4102 156.379 32.1982 155.408 31.7744C154.451 31.3369 153.713 30.6396 153.193 29.6826C152.674 28.7256 152.414 27.4678 152.414 25.9092V4.33496Z" fill="#8DE0C8"/>
</svg>
